<svg version="1.2" xmlns="http://www.w3.org/2000/svg" viewBox="0 0 504 439" width="504" height="439">
	<style>
		.s0 { fill: #1d5b5c } 
	</style>
	<path id="&lt;Compound Path&gt;" fill-rule="evenodd" class="s0" d="m97.81 164.38c6.41-81.94 82.49-140.58 163.78-125.74 36.19 6.6 65.79 26.11 88 55.38l-6.61 7.93c-5.39-7.28-41.34-54.19-100.09-56.44-68.61-2.63-126.84 57.21-133.85 110.31-0.77 5.83-0.84 10.89-0.69 14.79l13.8 31.07c1.16-0.16 10.48-1.24 17.6 5.73 0.89 0.88 6.47 6.78 6.14 15.3-0.4 10.2-8.83 19.31-20.11 18.86-2.4-0.09-5.4-0.77-7.94-1.16l-9.06 12.39c1.21 1.36 3.55 4.32 4.61 8.8 0.97 4.11 0.41 7.52 0 9.27q10.14 5.62 20.29 11.24-2.02 3.91-4.04 7.83-11.01-5.63-22.02-11.26c-1.2 1.26-4.86 4.79-10.83 5.84-7.05 1.25-12.41-1.85-13.74-2.67q-17.42 17.94-34.83 35.88c1.03 4.89 1.35 9.86-0.25 15.06 5.49 4.08 12.27 8.32 20.43 11.93 23.57 10.44 45.59 9.83 57.97 8.43 0.65-13.63 3.93-43.56 23.73-74.52 19.2-30.01 43.96-45.42 55.96-51.88l-0.16-70.68c-0.08-0.73-1.24-10.27-9.95-14.77-6.4-3.31-14.2-2.51-19.78 1.8-6.94 5.37-7.19 13.65-7.2 14.73l-0.08 80.14-9.7 8.84 0.09-92.8c0-6.85 4.42-12.78 9.05-17.25 8.85-8.55 21.72-9.66 32.8-4.44q19.86-20.48 39.71-40.96c-4.2-9.28-2.93-17.62 4.31-24.53 6.06-5.78 15.07-6.49 22.47-2.39 6.38 3.53 10.96 11.02 9.97 19.69-0.82 7.23-6.06 14.21-14.42 16.54l-0.08 35.61 5.43 2.32 24.88-25.03 6.81 6.99-24.95 25c4.3 6.78 4.49 15.17 0.47 21.41-4.15 6.44-11.09 7.96-12.54 8.24q-0.04 7.16-0.08 14.32-4.98 2.86-9.96 5.71l-0.34-19.81c-11.4-3.92-17.8-16.14-12.72-27.35 2.48-5.49 6.98-9.12 12.77-11.42q0.05-17.47 0.1-34.94-3.03-1.19-6.06-2.38-18.82 19.59-37.63 39.18c1.53 1.66 3.93 4.68 5.49 9.1 1.4 3.97 1.54 7.46 1.47 9.63q0.02 26.39 0.04 52.79v11.89l33.09-11.83c15.48-5.54 33.3-17.93 43.92-30.61l23.92-28.56 70.08-83.54q-14.08-11.76-28.16-23.53 63.9-20.43 127.81-40.86-6.52 67.21-13.04 134.43l-29.64-23.97-89.84 108.22c-9.94 11.97-31.72 29.42-46.39 36.5l0.14 75.34c0.67 9.92 9.07 17.64 18.86 17.49 9.55-0.14 17.6-7.73 18.29-17.41l0.06-85.75 10.15-9.34 0.19 48.45q16.49-8.9 32.98-17.8c-1.5-7.57 1.33-13.78 6.43-19.21q-9.2-18.67-18.39-37.35 3.56-4.27 7.13-8.54 10.12 20.69 20.23 41.37c1.99-0.34 6.59-0.86 11.59 1.32 5.6 2.43 10.46 7.69 11.72 14.69 1.24 6.89-1.33 13.78-6.31 18.25-0.67 0.61-7.54 6.57-16.92 4.74-4.01-0.78-7.86-2.86-10.98-6.31l-37.5 20.07-0.28 35.83c-1.51 17.14-16.72 29.29-32.12 27.53-13.43-1.53-24.59-13.36-25.4-28.17l-0.18-69.98-30.77 10.53c-6.86 1.28-20.04 4.79-31.8 15.6-7.39 6.79-11.22 13.72-12.44 16.06-6.18 11.82-6.72 22.86-6.6 28.47l-0.14 26.85q-5-0.02-9.99-0.05 0.17-16 0.35-32c0.29-26.57 19.82-51.51 45.31-60.23l34.25-11.71c18.06-6.17 34.11-16.46 48.31-29.16 4.39-3.93 8.76-7.89 12.61-12.54q48.09-57.88 96.18-115.77l22.55 18.4q4.99-50.38 9.97-100.75l-96.19 30.62q10.53 9.62 21.07 19.24-50.67 60.54-101.34 121.08c-2.75 3.28-6.19 6.43-9.4 9.32-15.32 13.76-35.79 22.76-55.49 28.87-35.33 10.97-62.13 33.13-80.04 65.34-6.41 11.52-10.03 21.03-11.29 24.66-6.36 18.34-7.76 34.48-7.9 45.3-12.88 2.2-37.48 4.49-64.95-5.72-12.72-4.73-22.76-10.91-30.15-16.4-1.78 0.71-5.87 2.02-10.18 0.49-6.42-2.27-10.76-9.95-9.98-18.88-5.11-7.93-16.22-27.5-16.65-54.78-0.18-11.91 1.52-34.44 15.52-56.15 25.82-40.06 72.76-45.11 79.28-45.71zm169.95-82.79c0-5.35-4.32-9.66-9.66-9.66-5.34 0-9.66 4.31-9.66 9.66 0 5.34 4.32 9.66 9.66 9.66 5.34 0 9.66-4.32 9.66-9.66zm0.02 74.41c0-5.36-4.34-9.7-9.7-9.7-5.36 0-9.7 4.34-9.7 9.7 0 5.36 4.34 9.7 9.7 9.7 5.36 0 9.7-4.34 9.7-9.7zm-193.47 104.68c0.64-2.78 2.73-9.18 9.21-12.95 8.08-4.71 16.4-1.48 17.42-1.07q4.7-6.71 9.39-13.42c-6.26-8.87-4.23-19.44 3.06-26.55l-14.5-32.19c-10.85 0.51-20.21 2.64-30.15 6.04-51.72 21.1-72.16 83.41-41.26 130.6 4.7-1.24 8.64-1.21 13.22-0.06q17.55-18.3 35.1-36.61c-0.8-1.71-3.04-7.11-1.49-13.79zm61.77-38.88c0-5.37-4.34-9.72-9.71-9.72-5.38 0-9.72 4.35-9.72 9.72 0 5.38 4.34 9.72 9.72 9.72 5.37 0 9.71-4.34 9.71-9.72zm-33.18 43.07c0-5.36-4.33-9.69-9.69-9.69-5.36 0-9.69 4.33-9.69 9.69 0 5.36 4.33 9.69 9.69 9.69 5.36 0 9.69-4.33 9.69-9.69zm314.83 0.02c0-5.37-4.34-9.7-9.7-9.7-5.37 0-9.71 4.33-9.71 9.7 0 5.37 4.34 9.71 9.71 9.71 5.36 0 9.7-4.34 9.7-9.71z"/>
	<path id="&lt;Path&gt;" class="s0" d="m242.89 417.7q-10.74-6.94-21.47-13.88c-1.06 0.76-4.91 3.3-10.16 2.79-7.72-0.74-11.44-7.38-11.68-7.83-3.04-5.64-1.89-12.42 1.64-16.9 4.87-6.17 14.57-8.36 21.5-3.53 5.52 3.84 7.95 11.2 5.83 18.09q11.23 7.15 22.46 14.3 1.14-18.28 2.28-36.55c-3.18-1.19-5.6-2.98-7.27-5.26-0.37-0.51-2.98-4.16-2.85-9.24 0.22-8.41 7.77-13.21 8.43-13.61q0.28-27.12 0.55-54.23 5.46-1.85 10.91-3.69l0.16 57.21c0.52 0.27 9.46 5.07 9.87 13.89 0.19 4.03-1.49 7.16-1.91 7.91-1.66 2.92-4.37 5.29-8.07 6.82q1.16 18.32 2.33 36.64 11.62-7.74 23.24-15.47c-0.41-1.81-0.73-4.62 0.35-7.57 2.38-6.52 11.07-12.26 19.55-8.92 8.18 3.23 11.43 13.07 8.13 19.99-3.63 7.62-14.81 10.93-23.42 5.05q-10.49 7.48-20.97 14.96c0.13 8.92-6.63 15.97-14.19 16.26-7.22 0.29-13.05-5.68-14.76-11.43-0.68-2.3-0.64-4.36-0.48-5.8z"/>
	<path id="&lt;Path&gt;" class="s0" d="m355.63 361.55c1.39-1.13 3.13-2.78 4.77-5.05 1.4-1.94 2.35-3.78 2.98-5.29 8.75 0.93 21.31-0.34 36.48-0.59 22.41-0.36 44.09-8.59 60.72-23.63 16.09-14.56 26.69-34.4 28.77-56.03 4.41-45.71-30.11-90.02-79.71-97.09l7.02-8.18c19.48 2.63 36.86 11.36 51.44 24.66 32.12 29.29 41.18 77.53 21.24 116.74-4.66 9.15-10.58 17.37-17.58 24.5-4.9 4.99-16.33 15.57-33.95 22.57-14.67 5.84-26.88 6.35-51.29 7.39-12.82 0.55-23.49 0.32-30.89 0z"/>
</svg>